<svg width="106" height="120" viewBox="0 0 106 120" fill="none" xmlns="http://www.w3.org/2000/svg">
<g clip-path="url(#clip0_42_1403)">
<path d="M38 18.75C38 12.5391 43.0391 7.5 49.25 7.5H56.75C62.9609 7.5 68 12.5391 68 18.75V101.25C68 107.461 62.9609 112.5 56.75 112.5H49.25C43.0391 112.5 38 107.461 38 101.25V18.75ZM0.5 63.75C0.5 57.5391 5.53906 52.5 11.75 52.5H19.25C25.4609 52.5 30.5 57.5391 30.5 63.75V101.25C30.5 107.461 25.4609 112.5 19.25 112.5H11.75C5.53906 112.5 0.5 107.461 0.5 101.25V63.75ZM86.75 22.5H94.25C100.461 22.5 105.5 27.5391 105.5 33.75V101.25C105.5 107.461 100.461 112.5 94.25 112.5H86.75C80.5391 112.5 75.5 107.461 75.5 101.25V33.75C75.5 27.5391 80.5391 22.5 86.75 22.5Z" fill="black"/>
</g>
<defs>
<clipPath id="clip0_42_1403">
<rect width="105" height="120" fill="white" transform="translate(0.5)"/>
</clipPath>
</defs>
</svg>
