<svg width="90" height="120" viewBox="0 0 90 120" fill="none" xmlns="http://www.w3.org/2000/svg">
<g clip-path="url(#clip0_42_1409)">
<path d="M63.75 90C66 82.5234 70.6641 76.1484 75.2813 69.7969C76.5 68.1328 77.7188 66.4687 78.8906 64.7812C83.5313 58.1016 86.25 50.0156 86.25 41.2734C86.25 18.4688 67.7812 0 45 0C22.2188 0 3.75 18.4688 3.75 41.25C3.75 49.9922 6.46875 58.1016 11.1094 64.7578C12.2813 66.4453 13.5 68.1094 14.7187 69.7734C19.3594 76.125 24.0234 82.5234 26.25 89.9766H63.75V90ZM45 120C55.3594 120 63.75 111.609 63.75 101.25V97.5H26.25V101.25C26.25 111.609 34.6406 120 45 120ZM26.25 41.25C26.25 43.3125 24.5625 45 22.5 45C20.4375 45 18.75 43.3125 18.75 41.25C18.75 26.7422 30.4922 15 45 15C47.0625 15 48.75 16.6875 48.75 18.75C48.75 20.8125 47.0625 22.5 45 22.5C34.6406 22.5 26.25 30.8906 26.25 41.25Z" fill="black"/>
</g>
<defs>
<clipPath id="clip0_42_1409">
<rect width="90" height="120" fill="white"/>
</clipPath>
</defs>
</svg>
