<svg width="457" height="150" viewBox="0 0 457 150" fill="none" xmlns="http://www.w3.org/2000/svg">
<path d="M0.232734 113V0.611762H18.6583V113H0.232734ZM75.5823 115.37C69.4659 115.37 64.4199 114.351 60.4443 112.312C56.4687 110.273 53.3085 107.674 50.9639 104.514C48.6193 101.353 46.8864 97.9894 45.765 94.4215C44.6437 90.8537 43.9046 87.4897 43.5478 84.3295C43.242 81.1184 43.0891 78.519 43.0891 76.5312V30.429H61.744V70.1854C61.744 72.7339 61.9224 75.6137 62.2792 78.8248C62.636 81.9849 63.4515 85.0431 64.7258 87.9993C66.051 90.9046 67.9878 93.3002 70.5363 95.1861C73.1358 97.072 76.6272 98.0149 81.0106 98.0149C83.3552 98.0149 85.6743 97.6326 87.9679 96.8681C90.2616 96.1035 92.3259 94.8038 94.1608 92.9689C96.0467 91.083 97.5503 88.509 98.6716 85.247C99.7929 81.9849 100.354 77.8564 100.354 72.8613L111.287 77.5251C111.287 84.5589 109.91 90.9301 107.158 96.6387C104.457 102.347 100.456 106.909 95.1547 110.324C89.8538 113.688 83.3297 115.37 75.5823 115.37ZM102.571 113V87.3877H100.354V30.429H118.856V113H102.571ZM183.074 115.294C175.021 115.294 168.267 113.382 162.813 109.56C157.36 105.737 153.257 100.538 150.504 93.9628C147.752 87.3367 146.376 79.9206 146.376 71.7145C146.376 63.4065 147.752 55.9649 150.504 49.3898C153.257 42.8147 157.283 37.6413 162.584 33.8695C167.936 30.0468 174.536 28.1354 182.386 28.1354C190.184 28.1354 196.938 30.0468 202.646 33.8695C208.406 37.6413 212.866 42.8147 216.026 49.3898C219.186 55.9139 220.766 63.3555 220.766 71.7145C220.766 79.9716 219.211 87.3877 216.102 93.9628C212.993 100.538 208.61 105.737 202.952 109.56C197.294 113.382 190.668 115.294 183.074 115.294ZM143.241 149.698V30.429H159.526V88.3816H161.819V149.698H143.241ZM180.245 98.7794C185.036 98.7794 188.986 97.5817 192.096 95.1861C195.205 92.7905 197.498 89.5539 198.976 85.4763C200.506 81.3478 201.27 76.7605 201.27 71.7145C201.27 66.7195 200.506 62.1832 198.976 58.1056C197.447 53.9771 195.077 50.715 191.866 48.3194C188.655 45.8729 184.577 44.6496 179.633 44.6496C174.944 44.6496 171.121 45.7964 168.165 48.0901C165.209 50.3327 163.017 53.4928 161.59 57.5704C160.214 61.597 159.526 66.3117 159.526 71.7145C159.526 77.0663 160.214 81.781 161.59 85.8586C163.017 89.9362 165.234 93.1218 168.242 95.4154C171.3 97.6581 175.301 98.7794 180.245 98.7794ZM278.216 115.294C269.857 115.294 262.517 113.484 256.197 109.865C249.876 106.247 244.932 101.226 241.365 94.8038C237.848 88.3816 236.089 80.991 236.089 72.632C236.089 63.6103 237.822 55.7865 241.288 49.1604C244.754 42.4834 249.571 37.31 255.738 33.6401C261.905 29.9703 269.041 28.1354 277.145 28.1354C285.708 28.1354 292.971 30.1487 298.935 34.1753C304.949 38.151 309.409 43.7831 312.314 51.0718C315.22 58.3605 316.315 66.9489 315.602 76.837H297.329V70.109C297.278 61.1383 295.698 54.5887 292.589 50.4602C289.48 46.3316 284.587 44.2673 277.91 44.2673C270.366 44.2673 264.76 46.6119 261.09 51.3011C257.42 55.9394 255.585 62.7439 255.585 71.7145C255.585 80.0736 257.42 86.5467 261.09 91.134C264.76 95.7213 270.111 98.0149 277.145 98.0149C281.682 98.0149 285.581 97.021 288.843 95.0332C292.156 92.9944 294.704 90.0636 296.488 86.2409L314.684 91.7456C311.524 99.1872 306.631 104.972 300.005 109.101C293.43 113.229 286.167 115.294 278.216 115.294ZM249.775 76.837V62.9222H306.58V76.837H249.775ZM396.118 60.2463V2.9054H406.592L426.318 33.7931L446.043 2.9054H456.517L456.594 60.2463H444.055V27.2944L429.911 50.0779H422.724L408.58 27.2944V60.2463H396.118ZM353.304 60.2463V14.6794H334.19V2.9054H385.415V14.6794H366.377V60.2463H353.304Z" fill="#000"/>
</svg>
