<svg width="151" height="120" viewBox="0 0 151 120" fill="none" xmlns="http://www.w3.org/2000/svg">
<g clip-path="url(#clip0_42_1405)">
<path d="M38 15C38 6.72656 44.7266 0 53 0H135.5C143.773 0 150.5 6.72656 150.5 15V82.5C150.5 90.7734 143.773 97.5 135.5 97.5H79.4375C76.6719 91.5234 72.4297 86.3672 67.1562 82.5H90.5V75C90.5 70.8516 93.8516 67.5 98 67.5H113C117.148 67.5 120.5 70.8516 120.5 75V82.5H135.5V15H53V26.5078C48.5938 23.9531 43.4609 22.5 38 22.5V15ZM38 30C40.9547 30 43.8806 30.582 46.6104 31.7127C49.3402 32.8434 51.8206 34.5008 53.9099 36.5901C55.9992 38.6794 57.6566 41.1598 58.7873 43.8896C59.918 46.6194 60.5 49.5453 60.5 52.5C60.5 55.4547 59.918 58.3806 58.7873 61.1104C57.6566 63.8402 55.9992 66.3206 53.9099 68.4099C51.8206 70.4992 49.3402 72.1566 46.6104 73.2873C43.8806 74.418 40.9547 75 38 75C35.0453 75 32.1194 74.418 29.3896 73.2873C26.6598 72.1566 24.1794 70.4992 22.0901 68.4099C20.0008 66.3206 18.3434 63.8402 17.2127 61.1104C16.082 58.3806 15.5 55.4547 15.5 52.5C15.5 49.5453 16.082 46.6194 17.2127 43.8896C18.3434 41.1598 20.0008 38.6794 22.0901 36.5901C24.1794 34.5008 26.6598 32.8434 29.3896 31.7127C32.1194 30.582 35.0453 30 38 30ZM31.7422 82.5H44.2344C61.5078 82.5 75.5 96.4922 75.5 113.742C75.5 117.187 72.7109 120 69.2422 120H6.75781C3.28906 120 0.5 117.211 0.5 113.742C0.5 96.4922 14.4922 82.5 31.7422 82.5Z" fill="black"/>
</g>
<defs>
<clipPath id="clip0_42_1405">
<rect width="150" height="120" fill="white" transform="translate(0.5)"/>
</clipPath>
</defs>
</svg>
